<?xml version="1.0" encoding="UTF-8" standalone="no"?><!DOCTYPE svg PUBLIC "-//W3C//DTD SVG 1.1//EN" "http://www.w3.org/Graphics/SVG/1.1/DTD/svg11.dtd"><svg width="100%" height="100%" viewBox="0 0 296 296" version="1.1" xmlns="http://www.w3.org/2000/svg" xmlns:xlink="http://www.w3.org/1999/xlink" xml:space="preserve" xmlns:serif="http://www.serif.com/" style="fill-rule:evenodd;clip-rule:evenodd;stroke-linejoin:round;stroke-miterlimit:2;"><path d="M217.45,69.913l-139.133,1.025c-12.05,44.741 -25.33,89.862 0.279,122.741l40.658,16.529l-4.496,14.705l-20.416,6.424l-34.567,-21.408l6.7,12.829c4.55,11.409 10.296,20.784 23.629,24.271c7.9,2.088 16.963,-2.237 23.488,2.4c7.762,5.538 -2.205,23.713 4.62,29.113c18.505,14.671 51.7,15.279 64.463,-5.034c7.188,-11.425 -1.217,-37.275 0.296,-60.783c70.346,-35.362 51.229,-89.342 34.479,-142.812Z" style="fill:#90dcff;"/><g><path d="M147.571,8.679c-76.738,0 -138.892,62.154 -138.892,138.892c0,61.458 39.758,113.367 94.967,131.771c6.946,1.212 9.55,-2.954 9.55,-6.6c-0,-3.296 -0.175,-14.234 -0.175,-25.867c-34.896,6.425 -43.925,-8.508 -46.7,-16.321c-1.563,-3.991 -8.333,-16.316 -14.238,-19.616c-4.862,-2.605 -11.804,-9.03 -0.175,-9.2c10.938,-0.175 18.75,10.066 21.355,14.233c12.499,21.008 32.466,15.104 40.454,11.458c1.212,-9.025 4.858,-15.104 8.854,-18.575c-30.904,-3.471 -63.196,-15.45 -63.196,-68.575c-0,-15.104 5.383,-27.604 14.237,-37.329c-1.391,-3.471 -6.25,-17.708 1.388,-36.804c-0,-0 11.633,-3.646 38.196,14.237c11.108,-3.125 22.916,-4.687 34.721,-4.687c11.804,-0 23.612,1.562 34.72,4.687c26.563,-18.058 38.196,-14.237 38.196,-14.237c7.638,19.096 2.779,33.333 1.388,36.804c8.854,9.725 14.237,22.05 14.237,37.329c0,53.296 -32.466,65.104 -63.366,68.575c5.033,4.342 9.375,12.675 9.375,25.696c-0,18.575 -0.175,33.504 -0.175,38.192c-0,3.646 2.604,7.987 9.55,6.6c56.387,-19.029 94.6,-72.259 94.616,-131.771c0,-76.738 -62.154,-138.892 -138.887,-138.892Z" style="fill:#00ff8d;fill-rule:nonzero;stroke:#000;stroke-width:12.17px;"/></g><path d="M103.646,279.342c-0,-0 50.504,15.087 88.196,-0" style="fill:none;stroke:#000;stroke-width:12.17px;stroke-linecap:round;stroke-miterlimit:1.5;"/></svg>