<?xml version="1.0" encoding="UTF-8" standalone="no"?><!DOCTYPE svg PUBLIC "-//W3C//DTD SVG 1.1//EN" "http://www.w3.org/Graphics/SVG/1.1/DTD/svg11.dtd"><svg width="100%" height="100%" viewBox="0 0 71 71" version="1.1" xmlns="http://www.w3.org/2000/svg" xmlns:xlink="http://www.w3.org/1999/xlink" xml:space="preserve" xmlns:serif="http://www.serif.com/" style="fill-rule:evenodd;clip-rule:evenodd;stroke-linejoin:round;stroke-miterlimit:2;"><path d="M52.188,16.779l-33.392,0.246c-2.892,10.738 -6.079,21.567 0.067,29.458l9.758,3.967l-1.079,3.529l-4.9,1.542l-8.296,-5.138l1.608,3.079c1.092,2.738 2.471,4.988 5.671,5.825c1.896,0.501 4.071,-0.537 5.637,0.576c1.863,1.329 -0.529,5.691 1.109,6.987c4.441,3.521 12.408,3.667 15.471,-1.208c1.725,-2.742 -0.292,-8.946 0.071,-14.588c16.883,-8.487 12.295,-21.442 8.275,-34.275Z" style="fill:#da45ff;"/><g><path d="M35.417,2.083c-18.417,0 -33.334,14.917 -33.334,33.334c0,14.75 9.542,27.208 22.792,31.625c1.667,0.291 2.292,-0.709 2.292,-1.584c-0,-0.791 -0.042,-3.416 -0.042,-6.208c-8.375,1.542 -10.542,-2.042 -11.208,-3.917c-0.375,-0.958 -2,-3.916 -3.417,-4.708c-1.167,-0.625 -2.833,-2.167 -0.042,-2.208c2.625,-0.042 4.5,2.416 5.125,3.416c3,5.042 7.792,3.625 9.709,2.75c0.291,-2.166 1.166,-3.625 2.125,-4.458c-7.417,-0.833 -15.167,-3.708 -15.167,-16.458c0,-3.625 1.292,-6.625 3.417,-8.959c-0.334,-0.833 -1.5,-4.25 0.333,-8.833c0,0 2.792,-0.875 9.167,3.417c2.666,-0.75 5.5,-1.125 8.333,-1.125c2.833,-0 5.667,0.375 8.333,1.125c6.375,-4.334 9.167,-3.417 9.167,-3.417c1.833,4.583 0.667,8 0.333,8.833c2.125,2.334 3.417,5.292 3.417,8.959c0,12.791 -7.792,15.625 -15.208,16.458c1.208,1.042 2.25,3.042 2.25,6.167c-0,4.458 -0.042,8.041 -0.042,9.166c0,0.875 0.625,1.917 2.292,1.584c13.533,-4.567 22.704,-17.342 22.708,-31.625c0,-18.417 -14.917,-33.334 -33.333,-33.334Z" style="fill:#35cbbe;fill-rule:nonzero;stroke:#000;stroke-width:2.92px;"/></g><path d="M24.875,67.042c0,-0 12.121,3.621 21.167,-0" style="fill:none;stroke:#000;stroke-width:2.92px;stroke-linecap:round;stroke-miterlimit:1.5;"/></svg>